<svg xmlns="http://www.w3.org/2000/svg" viewBox="0 0 1280 720">
  <defs>
    <linearGradient id="sky" x1="0" y1="0" x2="0" y2="1"><stop stop-color="#070b18"/><stop offset="1" stop-color="#28133a"/></linearGradient>
    <linearGradient id="road" x1="0" y1="0" x2="1" y2="0"><stop stop-color="#00d9ff"/><stop offset="1" stop-color="#ff2e88"/></linearGradient>
    <filter id="glow"><feGaussianBlur stdDeviation="12" result="b"/><feMerge><feMergeNode in="b"/><feMergeNode in="SourceGraphic"/></feMerge></filter>
  </defs>
  <rect width="1280" height="720" fill="url(#sky)"/>
  <path d="M0 450L150 390l90 30 110-100 95 58 130-158 105 120 90-78 95 112 110-65 155 141v270H0z" fill="#0b1020"/>
  <path d="M0 475h1280" stroke="#17243c" stroke-width="10"/>
  <path d="M430 720l170-255h80l170 255" fill="#121725"/>
  <path d="M626 700l12-70h4l12 70" fill="#facc15" opacity=".85"/>
  <path d="M465 676h350" stroke="url(#road)" stroke-width="12" filter="url(#glow)"/>
  <text x="640" y="250" text-anchor="middle" font-family="Arial Black, sans-serif" font-size="105" fill="#facc15">MATATU</text>
  <text x="640" y="355" text-anchor="middle" font-family="Arial Black, sans-serif" font-size="112" fill="#ffffff" stroke="#ff2e88" stroke-width="3">MAYHEM</text>
  <text x="640" y="420" text-anchor="middle" font-family="Arial, sans-serif" font-weight="700" font-size="30" letter-spacing="8" fill="#54e8ff">NAIROBI STREET KING</text>
  <text x="640" y="650" text-anchor="middle" font-family="Arial, sans-serif" font-size="22" fill="#c8d3e7">BEATHUB ONLINE • LOADING THE CITY</text>
</svg>
